<svg xmlns="http://www.w3.org/2000/svg" xmlns:xlink="http://www.w3.org/1999/xlink" version="1.1" width="56px" height="56px" viewBox="0 0 256 256" xml:space="preserve">
<desc>Created with Fabric.js 1.7.22</desc>
<defs>
</defs>
<g transform="translate(128 128) scale(0.72 0.72)" style="">
	<g style="stroke: none; stroke-width: 0; stroke-dasharray: none; stroke-linecap: butt; stroke-linejoin: miter; stroke-miterlimit: 10; fill: none; fill-rule: nonzero; opacity: 1;" transform="translate(-175.05 -175.05000000000004) scale(3.89 3.89)" >
	<path d="M 90 90 H 74.273 c -19.516 -3.526 -39.031 -3.526 -58.547 0 H 0 V 0 h 90 V 90 z" style="stroke: none; stroke-width: 1; stroke-dasharray: none; stroke-linecap: butt; stroke-linejoin: miter; stroke-miterlimit: 10; fill: rgb(204,204,204); fill-rule: nonzero; opacity: 1;" transform=" matrix(1 0 0 1 0 0) " stroke-linecap="round" />
	<path d="M 65.032 70.771 l -4.365 -2.438 c -3.656 -2.042 -6.415 -5.252 -7.929 -9.012 c 0.845 -0.949 1.622 -2.014 2.313 -3.155 c 2.958 -0.674 5.946 -1.618 8.967 -2.858 c -2.416 -2.946 -3.253 -4.847 -2.074 -13.702 C 63.275 26.936 54.397 20.32 45 20.045 c -9.397 0.275 -18.275 6.891 -16.944 19.562 c 1.179 8.854 0.342 10.756 -2.074 13.702 c 3.021 1.24 6.009 2.184 8.967 2.858 c 0.691 1.14 1.468 2.206 2.313 3.155 c -1.515 3.76 -4.273 6.97 -7.929 9.012 l -4.365 2.438 c -5.706 3.186 -9.241 9.21 -9.241 15.745 V 90 h 58.547 v -3.483 C 74.273 79.981 70.738 73.958 65.032 70.771 z" style="stroke: none; stroke-width: 1; stroke-dasharray: none; stroke-linecap: butt; stroke-linejoin: miter; stroke-miterlimit: 10; fill: rgb(247,247,247); fill-rule: nonzero; opacity: 1;" transform=" matrix(1 0 0 1 0 0) " stroke-linecap="round" />
</g>
</g>
</svg>